#!OML:ASF H:\Terrain\Patient Classification 1\Terrain2\Thursday\justin.ASF
:FULLY-SPECIFIED
:DEGREES
3406
root -12.8249 17.4116 16.1091 720.885 -545.964 6.04883
lowerback 6.78555 1.56013 4.95726
upperback 3.25548 2.7951 3.36905
thorax -0.381996 1.58464 0.499818
lowerneck -12.5269 -4.8086 -9.11438
upperneck 39.2502 -1.18817 3.97141
head 16.3546 0.227956 3.62992
rclavicle -4.83047e-014 -2.98177e-014
rhumerus -29.8252 -11.2202 -77.5366
rradius 26.6218
rwrist -8.54103
rhand -19.1544 13.8343
rfingers 7.12502
rthumb 7.15607 -16.0248
lclavicle -4.83047e-014 -2.98177e-014
lhumerus -36.0879 15.9602 80.1919
lradius 22.0078
lwrist -13.116
lhand -11.5566 22.2889
lfingers 7.12502
lthumb 14.4843 51.7633
rfemur 10.1932 -0.883902 26.6298
rtibia 29.1603
rfoot -13.3161 1.29358
rtoes -10.3081
lfemur -23.7412 1.18748 -12.7757
ltibia 24.7519
lfoot -2.3435 -9.32483
ltoes 0.442106
3407
root -12.8438 17.4367 16.0107 720.769 -545.919 6.05449
lowerback 6.85605 1.54978 5.07081
upperback 3.30291 2.79224 3.30141
thorax -0.363244 1.58652 0.366022
lowerneck -12.7983 -4.86645 -8.96479
upperneck 39.6213 -1.23193 4.03699
head 16.6228 0.254488 3.65576
rclavicle 8.15017e-015 6.36111e-014
rhumerus -29.8215 -11.4387 -77.6087
rradius 26.8014
rwrist -8.5284
rhand -19.2319 13.7853
rfingers 7.12502
rthumb 7.08133 -16.0763
lclavicle 8.15017e-015 6.36111e-014
lhumerus -35.6883 13.7418 81.577
lradius 22.4476
lwrist -8.52238
lhand -13.1877 23.181
lfingers 7.12502
lthumb 12.9122 52.7615
rfemur 9.35811 -1.039 26.4333
rtibia 31.2507
rfoot -11.7707 1.70597
rtoes -8.2326
lfemur -23.0617 1.1713 -12.9342
ltibia 24.374
lfoot -2.34415 -9.61241
ltoes 0.528749
3408
root -12.8651 17.4668 15.9058 720.673 -545.925 5.6283
lowerback 6.83158 1.61334 4.83595
upperback 3.33982 2.83517 3.04819
thorax -0.308297 1.60009 0.234915
lowerneck -12.7539 -4.91182 -8.72444
upperneck 39.5913 -1.39261 4.05199
head 16.6017 0.227525 3.58965
rclavicle 1.0138e-014 9.54166e-015
rhumerus -29.7821 -11.7244 -77.8107
rradius 26.9415
rwrist -8.51836
rhand -19.1743 14.2991
rfingers 7.12502
rthumb 7.13686 -15.5606
lclavicle 1.0138e-014 9.54166e-015
lhumerus -35.3846 12.3003 82.2883
lradius 22.6821
lwrist -5.66171
lhand -15.2065 22.3056
lfingers 7.12502
lthumb 10.9656 51.9992
rfemur 8.45918 -1.29268 25.6848
rtibia 33.4237
rfoot -10.4268 2.12206
rtoes -7.38647
lfemur -22.3282 1.14327 -13.5833
ltibia 23.8818
lfoot -2.41399 -9.4876
ltoes 0.548632
3409
root -12.8856 17.4945 15.8046 720.485 -545.717 4.78112
lowerback 6.85828 1.60613 4.0853
upperback 3.36533 2.75116 2.78433
thorax -0.321554 1.54117 0.385322
lowerneck -12.6995 -4.8842 -8.56851
upperneck 39.5059 -1.38599 3.96484
head 16.5352 0.240718 3.51712
rclavicle 4.07509e-015 -2.98177e-014
rhumerus -29.7333 -11.717 -77.9887
rradius 27.0845
rwrist -8.7054
rhand -19.1072 14.3468
rfingers 7.12502
rthumb 7.20163 -15.5107
lclavicle 4.07509e-015 -2.98177e-014
lhumerus -35.1007 11.3522 82.8392
lradius 22.8797
lwrist -4.06057
lhand -17.0388 21.0545
lfingers 7.12502
lthumb 9.19792 50.8339
rfemur 7.61041 -1.72834 24.5059
rtibia 35.6041
rfoot -9.14343 2.42386
rtoes -7.35698
lfemur -21.5497 0.86523 -14.6834
ltibia 23.3342
lfoot -2.46972 -9.50224
ltoes 2.12646
3410
root -12.9021 17.5255 15.7045 720.458 -545.577 4.3314
lowerback 6.66425 1.59299 3.65848
upperback 3.41331 2.68065 2.66166
thorax -0.179735 1.49923 0.509918
lowerneck -12.8897 0.779696 -9.69444
upperneck 39.0325 -3.86268 6.53538
head 16.4225 -3.81743 3.49219
rclavicle -2.06736e-014 4.37326e-015
rhumerus -29.6646 -11.5802 -78.1335
rradius 27.3125
rwrist -8.96055
rhand -18.9732 14.0968
rfingers 7.12502
rthumb 7.331 -15.7562
lclavicle -2.06736e-014 4.37326e-015
lhumerus -34.7344 10.4601 83.391
lradius 23.2155
lwrist -3.07287
lhand -17.9398 20.9648
lfingers 7.12502
lthumb 8.32842 50.7806
rfemur 6.50532 -1.99062 23.8147
rtibia 37.7438
rfoot -7.52108 2.65837
rtoes -5.58511
lfemur -20.8835 0.365905 -15.2747
ltibia 22.7363
lfoot -2.52776 -9.34513
ltoes 2.91346
3411
root -12.9163 17.5546 15.6122 720.572 -545.569 4.4741
lowerback 6.47107 1.57071 3.78206
upperback 3.39324 2.64665 2.69546
thorax -0.0898509 1.48381 0.484908
lowerneck -12.9686 -4.8814 -8.31058
upperneck 39.8525 -1.30703 3.85352
head 16.7769 0.310836 3.46239
rclavicle 1.98785e-015 2.42517e-014
rhumerus -29.6281 -11.3179 -78.3043
rradius 27.5739
rwrist -9.12604
rhand -18.5941 14.0615
rfingers 7.12502
rthumb 7.69694 -15.7785
lclavicle 1.98785e-015 2.42517e-014
lhumerus -34.5011 9.68365 83.7871
lradius 23.6722
lwrist -2.42662
lhand -16.6127 22.1627
lfingers 7.12502
lthumb 9.60899 51.9235
rfemur 5.21888 -2.19381 23.7788
rtibia 39.8204
rfoot -5.49247 2.72327
rtoes -3.42988
lfemur -20.3695 0.333392 -15.2517
ltibia 22.1304
lfoot -2.32337 -9.47929
ltoes 3.47924
